# xmcd
#
# Track frame offsets:
#	182
#	11687
#	22335
#	33680
#	45742
#	66622
#	78670
#	92532
#	104440
#	117035
#	129417
#	148397
#	161760
#	172310
#	185717
#	197377
#	211995
#	225092
#	235822
#	255392
#	267625
#	280865
#	310912
#
# Disc length: 4301 seconds
#
# Revision: 4
# Processed by: cddbd v1.5.2PL0 Copyright (c) Steve Scherf et al.
# Submitted via: audiograbber 1.83.01
#
DISCID=5610cb17
DTITLE=Various Artist - The Giants of Boogie Woogie
DYEAR=1990
DGENRE=Jazz
TTITLE0=Count Basie and his Orchestra - Hob Nail Boogie
TTITLE1=Count Basie and his Orchestra - Basie Boogie
TTITLE2=Count Basie and his Orchestra - WildBill´s Boogie
TTITLE3=Pete Johnson and Joe Turner - Baby Wont You Marry Me
TTITLE4=Jay McShann and Milt Buckner - Funky K.C.
TTITLE5=Big Joe Turner - Boogie Woogie Country Girl
TTITLE6=Pete Johnson's Orchestra - Half Tigh Boogie
TTITLE7=Pete Johnson and Joe Turner - Christmas Date Boogie
TTITLE8=Pete Johnson's Orchestra - Skid Row Boogie
TTITLE9=Milt Buckner - Buck´s Boggie Woogie
TTITLE10=Woody Hermann and the Swingin' Herd - Pinetop´s Blues
TTITLE11=Count Basie and his Orchestra - The Mad Boogie
TTITLE12=Joe Turner - Rejane Boogie
TTITLE13=Albert Ammons - The Boohie Rocks
TTITLE14=Albert Ammons - Bugle Boogie
TTITLE15=Lionel Hampton and his Septet - Two Finger Boogie
TTITLE16=Count Basie and Jimmy Rushing - Boogie Woogie (I my be wrong)
TTITLE17=Sammy Price - 133rd Street Boogie
TTITLE18=Edmond Hall Sextet - Downtown Café Boogie
TTITLE19=Louis Jordan - ChooChoo Ch´boogie
TTITLE20=Albert Ammons - Reveille Boogie
TTITLE21=Memphis Slim - Three And One-Boogie
TTITLE22=Pete Johnson and Joe Turner - Wine-O-Baby Boogie
EXTD=YEAR: 1990
EXTT0=
EXTT1=
EXTT2=
EXTT3=
EXTT4=
EXTT5=
EXTT6=
EXTT7=
EXTT8=
EXTT9=
EXTT10=
EXTT11=
EXTT12=
EXTT13=
EXTT14=
EXTT15=
EXTT16=
EXTT17=
EXTT18=
EXTT19=
EXTT20=
EXTT21=
EXTT22=
PLAYORDER=
